<?xml version="1.0" standalone="no"?><!DOCTYPE svg PUBLIC "-//W3C//DTD SVG 1.1//EN"
  "http://www.w3.org/Graphics/SVG/1.1/DTD/svg11.dtd">
<svg t="1529048005116" class="icon" style="" viewBox="0 0 1024 1024" version="1.1" xmlns="http://www.w3.org/2000/svg"
     p-id="3785"
     width="200" height="200">
  <defs>
    <style type="text/css"></style>
  </defs>
  <path
    d="M755.09014111 354.01800459a35.63903602 35.63903602 0 1 0 0 71.278072 35.63903602 35.63903602 0 0 0 0-71.278072zM527.95777732 398.69978107c-78.72503476 0-142.55614402 63.83110926-142.55614403 142.55614401s63.83110926 142.55614402 142.55614401 142.55614401 142.55614402-64.36303516 142.55614402-142.55614401c0-78.72503476-63.83110926-142.55614402-142.55614402-142.55614401z m-1.06385183 234.04740062c-48.93718377 0-88.83162705-38.83059147-88.83162706-86.70392342s39.89444329-86.70392341 88.83162706-86.70392341 88.83162705 38.83059147 88.83162707 86.70392341c0 47.34140603-39.89444329 86.70392341-88.83162707 86.70392342z"
    fill="#1296db" p-id="3786"></path>
  <path
    d="M522.63851821 6.67038501C243.37741519 6.67038501 17.30890322 232.73889698 17.30890322 512s226.06851197 505.32961499 505.32961499 505.32961499 505.32961499-226.06851197 505.329615-505.32961499-226.60043789-505.32961499-505.329615-505.32961499z m319.15554631 773.42027388c0 11.70237004-9.57466639 18.61740687-21.27703642 18.61740687H226.35578605c-12.23429594 0-23.40474007-6.91503684-23.40474006-18.61740687V310.93200582c0-11.70237004 11.70237004-22.34088825 23.40474006-22.34088823h39.89444329l2.65962955-27.12822144c0-3.72348137 3.19155546-8.51081457 6.91503684-8.51081457h37.76673964c3.72348137 0 6.91503684 4.7873332 6.91503685 8.51081457l2.65962955 27.12822144h30.85170282l18.61740684-57.97992425c0-3.72348137 3.19155546-5.85118502 6.91503685-5.85118502h287.77191759c3.72348137 0 6.91503684 2.12770365 6.91503683 5.85118502L692.85480957 288.59111759h127.66221853c11.70237004 0 21.27703642 10.63851821 21.27703642 22.34088825v469.15865305z"
    fill="#1296db" p-id="3787"></path>
</svg>
